<svg xmlns="http://www.w3.org/2000/svg" viewBox="0 0 121.471 14.042">
  <defs>
    <style>
      .cls-1 {
        fill: #ff4141;
      }
    </style>
  </defs>
  <path id="Path_2709" data-name="Path 2709" class="cls-1" d="M10.368,13.658V1.021h2.56V6h5.12V1.021h2.56V13.658h-2.56V8.425h-5.12v5.234ZM22.528,1.021h7.808V3.447H25.088V5.872H29.44V8.3H25.216v2.808h5.248v2.425H22.656C22.528,9.446,22.528,5.234,22.528,1.021ZM35.2,3.447h-.64V7.276h.256c1.28,0,2.56-.511,2.56-1.915h0C37.5,4.085,36.352,3.447,35.2,3.447ZM32.128,13.658V1.021h3.2c2.56,0,4.864,1.659,4.864,4.34h0c0,2.808-2.432,4.34-4.992,4.34h-.384v3.957H32.128Zm11.9-10.212V13.658h-2.56V1.021h6.656V3.447Zm6.4,3.957h0a4.15,4.15,0,0,0,1.28,2.936,4.172,4.172,0,0,0,2.944,1.276h0A4.172,4.172,0,0,0,57.6,10.34,4.15,4.15,0,0,0,58.879,7.4h0a4.038,4.038,0,0,0-1.152-2.936,4.245,4.245,0,0,0-3.072-1.276h0a4.245,4.245,0,0,0-3.072,1.276A4.641,4.641,0,0,0,50.431,7.4Zm-2.56-.128h0a6.421,6.421,0,0,1,2.176-4.851A6.956,6.956,0,0,1,54.655.638h0a6.956,6.956,0,0,1,4.608,1.787,6.421,6.421,0,0,1,2.176,4.851h0a6.741,6.741,0,0,1-2.048,4.851,7.156,7.156,0,0,1-4.736,1.915h0a6.582,6.582,0,0,1-4.736-1.915A6.327,6.327,0,0,1,47.871,7.276Zm17.28-3.829V13.658h-2.56V1.021h7.168V3.447Zm9.984,4.085-1.024-2.17-1.024,2.17h2.048Zm1.152,2.425H71.935l-1.792,3.7H67.327L74.111,0,80.9,13.658H78.079Zm8.32-6.51h-.64V7.276h.256c1.28,0,2.56-.511,2.56-1.915h0a1.951,1.951,0,0,0-2.176-1.915Zm-3.2,10.212V.894h3.2c2.56,0,4.864,1.659,4.864,4.34h0c0,2.808-2.432,4.34-4.992,4.34H84.1v3.957H81.407Zm14.08-6.127-1.024-2.17-1.024,2.17h2.048Zm1.024,2.425H92.159l-1.792,3.7H87.551L94.463,0l6.784,13.658H98.431Zm5.12,3.7V1.021h2.56V6h5.12V1.021h2.56V13.658h-2.56V8.425h-5.12v5.234Zm14.592,0V3.447h-2.688V1.021h7.936V3.447h-2.688V13.658ZM0,4.212H0V1.276A7.61,7.61,0,0,1,2.944.638h0A6.2,6.2,0,0,1,7.3,2.3,6.416,6.416,0,0,1,9.344,7.276h0A6.416,6.416,0,0,1,7.3,12.254a5.891,5.891,0,0,1-4.352,1.787h0A5.959,5.959,0,0,1,0,13.276V10.34a4.97,4.97,0,0,0,2.944,1.149A3.831,3.831,0,0,0,6.656,8.3H1.408V5.872H6.656A3.839,3.839,0,0,0,2.944,3.064h0A4.668,4.668,0,0,0,0,4.212Z"/>
</svg>
