<svg xmlns="http://www.w3.org/2000/svg" viewBox="0 0 16.643 16.643">
  <defs>
    <style>
      .cls-1 {
        fill: #fff;
      }
    </style>
  </defs>
  <g id="close" transform="translate(-4 -3.977)">
    <g id="Group_1715" data-name="Group 1715" transform="translate(4 3.977)">
      <g id="Group_1714" data-name="Group 1714" transform="translate(0 0)">
        <path id="Path_2680" data-name="Path 2680" class="cls-1" d="M16.446.2A.672.672,0,0,0,15.5.2L.2,15.5a.672.672,0,1,0,.951.951l15.3-15.3A.672.672,0,0,0,16.446.2Z" transform="translate(0 0)"/>
      </g>
    </g>
    <g id="Group_1717" data-name="Group 1717" transform="translate(4 3.977)">
      <g id="Group_1716" data-name="Group 1716" transform="translate(0 0)">
        <path id="Path_2681" data-name="Path 2681" class="cls-1" d="M16.446,15.5,1.148.2A.672.672,0,1,0,.2,1.149l15.3,15.3a.672.672,0,1,0,.951-.951Z" transform="translate(0 -0.001)"/>
      </g>
    </g>
  </g>
</svg>
