<svg xmlns="http://www.w3.org/2000/svg" viewBox="0 0 19.192 21.413">
  <defs>
    <style>
      .cls-1 {
        fill: #fff;
      }
    </style>
  </defs>
  <g id="notification-bell" transform="translate(0 0)">
    <g id="Group_1549" data-name="Group 1549" transform="translate(0 0)">
      <g id="Group_1548" data-name="Group 1548" transform="translate(0)">
        <path id="Path_2569" data-name="Path 2569" class="cls-1" d="M50.574,17.5c-2.276-1.028-2.362-5.439-2.364-5.55V8.994A6.887,6.887,0,0,0,44,2.654a2.663,2.663,0,0,0-5.327,0,6.887,6.887,0,0,0-4.214,6.34v2.959c0,.111-.088,4.522-2.364,5.55a.6.6,0,0,0,.249,1.154H38.11a3.394,3.394,0,0,0,.9,1.746,3.186,3.186,0,0,0,4.654,0,3.393,3.393,0,0,0,.9-1.746h5.769a.6.6,0,0,0,.249-1.154Zm-3-2.113a6.7,6.7,0,0,0,1.058,2.06h-14.6a6.7,6.7,0,0,0,1.058-2.06ZM41.333,1.208a1.458,1.458,0,0,1,1.4,1.053,6.907,6.907,0,0,0-2.8,0A1.458,1.458,0,0,1,41.333,1.208ZM35.664,11.957V8.994A5.669,5.669,0,0,1,47,8.994v2.968a12.6,12.6,0,0,0,.256,2.221H35.408A12.612,12.612,0,0,0,35.664,11.957Zm5.669,8.249a2.118,2.118,0,0,1-1.984-1.548h3.968A2.118,2.118,0,0,1,41.333,20.205Z" transform="translate(-31.737)"/>
      </g>
    </g>
  </g>
</svg>
