<svg xmlns="http://www.w3.org/2000/svg" viewBox="0 0 96.414 118.183">
  <defs>
    <style>
      .cls-1 {
        fill: #e4e4e4;
      }
    </style>
  </defs>
  <path id="Path_2778" data-name="Path 2778" class="cls-1" d="M63.844,8.61c7.616,6.32,11.667,12.315,8.588,26.736,1.3.486,3.4,2.107,2.755,6.644s-2.593,6.482-4.537,7.13c-2.917,11.181-8.426,16.69-8.426,16.69v5.023c0,9.074,12.639,7.778,22.362,13.611s11.829,19.607,11.829,23.334-12.477,10.371-48.126,10.371S0,111.991,0,107.615s1.782-17.5,11.5-23.334,22.362-4.537,22.362-13.611V65.647a40.459,40.459,0,0,1-8.588-16.69c-1.944-.81-4.051-2.917-4.7-7.292s1.62-6.157,2.755-6.482c-2.593-17.662.972-27.709,15.556-32.57C49.908-1.113,63.844.184,63.844.184Z" transform="translate(0 0.034)"/>
</svg>
