<svg xmlns="http://www.w3.org/2000/svg" viewBox="0 0 19.59 19.59">
  <defs>
    <style>
      .cls-1, .cls-2, .cls-4 {
        fill: none;
      }

      .cls-1 {
        stroke: #FF4141;
        stroke-miterlimit: 10;
      }

      .cls-2 {
        stroke: #FF4141;
      }

      .cls-3 {
        stroke: none;
      }
    </style>
  </defs>
  <g id="Group_2156" data-name="Group 2156" transform="translate(-320 -26)">
    <path id="Path_2786" data-name="Path 2786" class="cls-1" d="M288.13,2.272c.694.555.879,1.2.879,2.591a3.093,3.093,0,0,1-1.018,2.5v.463c0,.787.972.694,1.851,1.2a2.663,2.663,0,0,1,1.064,2.082c0,.324-1.11.925-4.3.925s-4.3-.555-4.3-.925a2.533,2.533,0,0,1,1.018-2.082c.879-.509,1.851-.416,1.851-1.2V7.316a2.943,2.943,0,0,1-1.018-2.452c0-1.8.324-2.73,1.619-3.146a7.727,7.727,0,0,1,2.406-.231Z" transform="translate(43.135 29.122)"/>
    <g id="Ellipse_374" data-name="Ellipse 374" class="cls-2" transform="translate(320 26)">
      <circle class="cls-3" cx="9.795" cy="9.795" r="9.795"/>
      <circle class="cls-4" cx="9.795" cy="9.795" r="9.295"/>
    </g>
  </g>
</svg>
