<svg xmlns="http://www.w3.org/2000/svg" viewBox="0 0 20.572 16.697">
  <defs>
    <style>
      .cls-1 {
        fill: #ff4141;
      }
    </style>
  </defs>
  <g id="photo-camera" transform="translate(0 -46.15)">
    <g id="Group_1372" data-name="Group 1372" transform="translate(0 46.15)">
      <path id="Path_1637" data-name="Path 1637" class="cls-1" d="M0,51.26v9.077a2.512,2.512,0,0,0,2.511,2.511H18.062a2.512,2.512,0,0,0,2.511-2.511V51.26a2.39,2.39,0,0,0-2.389-2.389H14.842l-.08-.348a3.052,3.052,0,0,0-2.989-2.372H8.8a3.059,3.059,0,0,0-2.989,2.372l-.08.348H2.389A2.393,2.393,0,0,0,0,51.26ZM6.138,49.9a.512.512,0,0,0,.5-.4l.172-.747A2.031,2.031,0,0,1,8.8,47.179h2.977a2.031,2.031,0,0,1,1.986,1.574l.172.747a.516.516,0,0,0,.5.4h3.749a1.36,1.36,0,0,1,1.36,1.36v9.077a1.482,1.482,0,0,1-1.482,1.482H2.511a1.482,1.482,0,0,1-1.482-1.482V51.26a1.36,1.36,0,0,1,1.36-1.36Z" transform="translate(0 -46.15)"/>
      <circle id="Ellipse_367" data-name="Ellipse 367" class="cls-1" cx="0.689" cy="0.689" r="0.689" transform="translate(2.792 5.256)"/>
      <path id="Path_1638" data-name="Path 1638" class="cls-1" d="M146.42,183.79a4.32,4.32,0,1,0-4.32-4.32A4.327,4.327,0,0,0,146.42,183.79Zm0-7.612a3.292,3.292,0,1,1-3.292,3.292A3.3,3.3,0,0,1,146.42,176.179Z" transform="translate(-136.134 -169.734)"/>
    </g>
  </g>
</svg>
